<?xml version="1.0" encoding="us-ascii" standalone="no"?><svg xmlns="http://www.w3.org/2000/svg" xmlns:xlink="http://www.w3.org/1999/xlink" contentStyleType="text/css" height="935px" preserveAspectRatio="none" style="width:790px;height:935px;background:#FFFFFF;" version="1.1" viewBox="0 0 790 935" width="790px" zoomAndPan="magnify"><defs/><g><!--cluster UI--><g id="cluster_UI"><path d="M506,6 L521,6 A3.75,3.75 0 0 1 523.5,8.5 L530.5,29.6094 L781,29.6094 A2.5,2.5 0 0 1 783.5,32.1094 L783.5,209.5 A2.5,2.5 0 0 1 781,212 L506,212 A2.5,2.5 0 0 1 503.5,209.5 L503.5,8.5 A2.5,2.5 0 0 1 506,6 " fill="none" style="stroke:#000000;stroke-width:1.5;"/><line style="stroke:#000000;stroke-width:1.5;" x1="503.5" x2="530.5" y1="29.6094" y2="29.6094"/><text fill="#000000" font-family="sans-serif" font-size="14" font-weight="bold" lengthAdjust="spacing" textLength="14" x="507.5" y="22.5332">UI</text></g><!--class View--><g id="elem_View"><rect codeLine="70" fill="#F1F1F1" height="153.6563" id="View" rx="2.5" ry="2.5" style="stroke:#181818;stroke-width:0.5;" width="248" x="519.5" y="42"/><ellipse cx="624.75" cy="58" fill="#ADD1B2" rx="11" ry="11" style="stroke:#181818;stroke-width:1.0;"/><path d="M627.5156,53.875 Q627.6719,53.6563 627.8594,53.5469 Q628.0469,53.4375 628.2656,53.4375 Q628.6406,53.4375 628.875,53.7031 Q629.1094,53.9531 629.1094,54.5625 L629.1094,56.0156 Q629.1094,56.625 628.875,56.8906 Q628.6406,57.1563 628.2656,57.1563 Q627.9219,57.1563 627.7188,56.9531 Q627.5156,56.7656 627.4063,56.25 Q627.3594,55.8906 627.1719,55.7031 Q626.8438,55.3281 626.2344,55.1094 Q625.625,54.8906 625,54.8906 Q624.2344,54.8906 623.5938,55.2188 Q622.9688,55.5469 622.4688,56.2969 Q621.9844,57.0469 621.9844,58.0781 L621.9844,59.1719 Q621.9844,60.4063 622.875,61.2344 Q623.7656,62.0469 625.3594,62.0469 Q626.2969,62.0469 626.9531,61.7969 Q627.3438,61.6406 627.7656,61.2031 Q628.0313,60.9375 628.1719,60.8594 Q628.3281,60.7813 628.5313,60.7813 Q628.8594,60.7813 629.1094,61.0469 Q629.375,61.2969 629.375,61.6406 Q629.375,61.9844 629.0313,62.3906 Q628.5313,62.9688 627.7344,63.2969 Q626.6563,63.75 625.3594,63.75 Q623.8438,63.75 622.6406,63.125 Q621.6563,62.625 620.9688,61.5625 Q620.2813,60.4844 620.2813,59.2031 L620.2813,58.0469 Q620.2813,56.7188 620.8906,55.5781 Q621.5156,54.4219 622.6094,53.8125 Q623.7031,53.1875 624.9375,53.1875 Q625.6719,53.1875 626.3125,53.3594 Q626.9688,53.5156 627.5156,53.875 Z " fill="#000000"/><text fill="#000000" font-family="sans-serif" font-size="14" lengthAdjust="spacing" textLength="29" x="645.25" y="63.7285">View</text><line style="stroke:#181818;stroke-width:0.5;" x1="520.5" x2="766.5" y1="74" y2="74"/><rect fill="none" height="6" style="stroke:#C82930;stroke-width:1.0;" width="6" x="527.5" y="85.3047"/><text fill="#000000" font-family="sans-serif" font-size="14" lengthAdjust="spacing" textLength="112" x="539.5" y="92.5332">scanner: Scanner</text><line style="stroke:#181818;stroke-width:0.5;" x1="520.5" x2="766.5" y1="99.6094" y2="99.6094"/><ellipse cx="530.5" cy="113.9141" fill="#84BE84" rx="3" ry="3" style="stroke:#038048;stroke-width:1.0;"/><text fill="#000000" font-family="sans-serif" font-size="14" lengthAdjust="spacing" textLength="39" x="539.5" y="118.1426">View()</text><ellipse cx="530.5" cy="131.5234" fill="#84BE84" rx="3" ry="3" style="stroke:#038048;stroke-width:1.0;"/><text fill="#000000" font-family="sans-serif" font-size="14" lengthAdjust="spacing" textLength="78" x="539.5" y="135.752">exibirMenu()</text><ellipse cx="530.5" cy="149.1328" fill="#84BE84" rx="3" ry="3" style="stroke:#038048;stroke-width:1.0;"/><text fill="#000000" font-family="sans-serif" font-size="14" lengthAdjust="spacing" textLength="68" x="539.5" y="153.3613">lerOpcao()</text><ellipse cx="530.5" cy="166.7422" fill="#84BE84" rx="3" ry="3" style="stroke:#038048;stroke-width:1.0;"/><text fill="#000000" font-family="sans-serif" font-size="14" lengthAdjust="spacing" textLength="222" x="539.5" y="170.9707">exibirMensagem(String mensagem)</text><ellipse cx="530.5" cy="184.3516" fill="#84BE84" rx="3" ry="3" style="stroke:#038048;stroke-width:1.0;"/><text fill="#000000" font-family="sans-serif" font-size="14" lengthAdjust="spacing" textLength="103" x="539.5" y="188.5801">fecharScanner()</text></g><!--class ReprodutorMusical--><g id="elem_ReprodutorMusical"><rect codeLine="2" fill="#F1F1F1" height="100.8281" id="ReprodutorMusical" rx="2.5" ry="2.5" style="stroke:#181818;stroke-width:0.5;" width="152" x="71.5" y="613"/><ellipse cx="86.5" cy="629" fill="#B4A7E5" rx="11" ry="11" style="stroke:#181818;stroke-width:1.0;"/><path d="M87.4531,625.6406 L87.4531,632.2969 L89.1719,632.2969 Q89.7813,632.2969 90.0469,632.5313 Q90.3125,632.7656 90.3125,633.1563 Q90.3125,633.5313 90.0469,633.7656 Q89.7813,634 89.1719,634 L84.0313,634 Q83.4219,634 83.1563,633.7656 Q82.8906,633.5313 82.8906,633.1406 Q82.8906,632.7656 83.1563,632.5313 Q83.4219,632.2969 84.0313,632.2969 L85.75,632.2969 L85.75,625.6406 L84.0313,625.6406 Q83.4219,625.6406 83.1563,625.4063 Q82.8906,625.1719 82.8906,624.7813 Q82.8906,624.4063 83.1563,624.1719 Q83.4219,623.9375 84.0313,623.9375 L89.1719,623.9375 Q89.7813,623.9375 90.0469,624.1719 Q90.3125,624.4063 90.3125,624.7813 Q90.3125,625.1719 90.0469,625.4063 Q89.7813,625.6406 89.1719,625.6406 L87.4531,625.6406 Z " fill="#000000"/><text fill="#000000" font-family="sans-serif" font-size="14" font-style="italic" lengthAdjust="spacing" textLength="120" x="100.5" y="634.7285">ReprodutorMusical</text><line style="stroke:#181818;stroke-width:0.5;" x1="72.5" x2="222.5" y1="645" y2="645"/><line style="stroke:#181818;stroke-width:0.5;" x1="72.5" x2="222.5" y1="653" y2="653"/><ellipse cx="82.5" cy="667.3047" fill="#84BE84" rx="3" ry="3" style="stroke:#038048;stroke-width:1.0;"/><text fill="#000000" font-family="sans-serif" font-size="14" font-style="italic" lengthAdjust="spacing" textLength="42" x="91.5" y="671.5332">tocar()</text><ellipse cx="82.5" cy="684.9141" fill="#84BE84" rx="3" ry="3" style="stroke:#038048;stroke-width:1.0;"/><text fill="#000000" font-family="sans-serif" font-size="14" font-style="italic" lengthAdjust="spacing" textLength="54" x="91.5" y="689.1426">pausar()</text><ellipse cx="82.5" cy="702.5234" fill="#84BE84" rx="3" ry="3" style="stroke:#038048;stroke-width:1.0;"/><text fill="#000000" font-family="sans-serif" font-size="14" font-style="italic" lengthAdjust="spacing" textLength="120" x="91.5" y="706.752">selecionarMusica()</text></g><!--class AparelhoTelefonico--><g id="elem_AparelhoTelefonico"><rect codeLine="8" fill="#F1F1F1" height="100.8281" id="AparelhoTelefonico" rx="2.5" ry="2.5" style="stroke:#181818;stroke-width:0.5;" width="155" x="288" y="613"/><ellipse cx="303" cy="629" fill="#B4A7E5" rx="11" ry="11" style="stroke:#181818;stroke-width:1.0;"/><path d="M303.9531,625.6406 L303.9531,632.2969 L305.6719,632.2969 Q306.2813,632.2969 306.5469,632.5313 Q306.8125,632.7656 306.8125,633.1563 Q306.8125,633.5313 306.5469,633.7656 Q306.2813,634 305.6719,634 L300.5313,634 Q299.9219,634 299.6563,633.7656 Q299.3906,633.5313 299.3906,633.1406 Q299.3906,632.7656 299.6563,632.5313 Q299.9219,632.2969 300.5313,632.2969 L302.25,632.2969 L302.25,625.6406 L300.5313,625.6406 Q299.9219,625.6406 299.6563,625.4063 Q299.3906,625.1719 299.3906,624.7813 Q299.3906,624.4063 299.6563,624.1719 Q299.9219,623.9375 300.5313,623.9375 L305.6719,623.9375 Q306.2813,623.9375 306.5469,624.1719 Q306.8125,624.4063 306.8125,624.7813 Q306.8125,625.1719 306.5469,625.4063 Q306.2813,625.6406 305.6719,625.6406 L303.9531,625.6406 Z " fill="#000000"/><text fill="#000000" font-family="sans-serif" font-size="14" font-style="italic" lengthAdjust="spacing" textLength="123" x="317" y="634.7285">AparelhoTelefonico</text><line style="stroke:#181818;stroke-width:0.5;" x1="289" x2="442" y1="645" y2="645"/><line style="stroke:#181818;stroke-width:0.5;" x1="289" x2="442" y1="653" y2="653"/><ellipse cx="299" cy="667.3047" fill="#84BE84" rx="3" ry="3" style="stroke:#038048;stroke-width:1.0;"/><text fill="#000000" font-family="sans-serif" font-size="14" font-style="italic" lengthAdjust="spacing" textLength="37" x="308" y="671.5332">ligar()</text><ellipse cx="299" cy="684.9141" fill="#84BE84" rx="3" ry="3" style="stroke:#038048;stroke-width:1.0;"/><text fill="#000000" font-family="sans-serif" font-size="14" font-style="italic" lengthAdjust="spacing" textLength="59" x="308" y="689.1426">atender()</text><ellipse cx="299" cy="702.5234" fill="#84BE84" rx="3" ry="3" style="stroke:#038048;stroke-width:1.0;"/><text fill="#000000" font-family="sans-serif" font-size="14" font-style="italic" lengthAdjust="spacing" textLength="118" x="308" y="706.752">iniciarCorreioVoz()</text></g><!--class NavegadorInternet--><g id="elem_NavegadorInternet"><rect codeLine="14" fill="#F1F1F1" height="100.8281" id="NavegadorInternet" rx="2.5" ry="2.5" style="stroke:#181818;stroke-width:0.5;" width="151" x="501" y="613"/><ellipse cx="516.45" cy="629" fill="#B4A7E5" rx="11" ry="11" style="stroke:#181818;stroke-width:1.0;"/><path d="M517.4031,625.6406 L517.4031,632.2969 L519.1219,632.2969 Q519.7313,632.2969 519.9969,632.5313 Q520.2625,632.7656 520.2625,633.1563 Q520.2625,633.5313 519.9969,633.7656 Q519.7313,634 519.1219,634 L513.9813,634 Q513.3719,634 513.1063,633.7656 Q512.8406,633.5313 512.8406,633.1406 Q512.8406,632.7656 513.1063,632.5313 Q513.3719,632.2969 513.9813,632.2969 L515.7,632.2969 L515.7,625.6406 L513.9813,625.6406 Q513.3719,625.6406 513.1063,625.4063 Q512.8406,625.1719 512.8406,624.7813 Q512.8406,624.4063 513.1063,624.1719 Q513.3719,623.9375 513.9813,623.9375 L519.1219,623.9375 Q519.7313,623.9375 519.9969,624.1719 Q520.2625,624.4063 520.2625,624.7813 Q520.2625,625.1719 519.9969,625.4063 Q519.7313,625.6406 519.1219,625.6406 L517.4031,625.6406 Z " fill="#000000"/><text fill="#000000" font-family="sans-serif" font-size="14" font-style="italic" lengthAdjust="spacing" textLength="118" x="530.55" y="634.7285">NavegadorInternet</text><line style="stroke:#181818;stroke-width:0.5;" x1="502" x2="651" y1="645" y2="645"/><line style="stroke:#181818;stroke-width:0.5;" x1="502" x2="651" y1="653" y2="653"/><ellipse cx="512" cy="667.3047" fill="#84BE84" rx="3" ry="3" style="stroke:#038048;stroke-width:1.0;"/><text fill="#000000" font-family="sans-serif" font-size="14" font-style="italic" lengthAdjust="spacing" textLength="87" x="521" y="671.5332">exibirPagina()</text><ellipse cx="512" cy="684.9141" fill="#84BE84" rx="3" ry="3" style="stroke:#038048;stroke-width:1.0;"/><text fill="#000000" font-family="sans-serif" font-size="14" font-style="italic" lengthAdjust="spacing" textLength="125" x="521" y="689.1426">adicionarNovaAba()</text><ellipse cx="512" cy="702.5234" fill="#84BE84" rx="3" ry="3" style="stroke:#038048;stroke-width:1.0;"/><text fill="#000000" font-family="sans-serif" font-size="14" font-style="italic" lengthAdjust="spacing" textLength="108" x="521" y="706.752">atualizarPagina()</text></g><!--class ReprodutorMusicalPadrao--><g id="elem_ReprodutorMusicalPadrao"><rect codeLine="20" fill="#F1F1F1" height="153.6563" id="ReprodutorMusicalPadrao" rx="2.5" ry="2.5" style="stroke:#181818;stroke-width:0.5;" width="223" x="7" y="775"/><ellipse cx="33.7" cy="791" fill="#ADD1B2" rx="11" ry="11" style="stroke:#181818;stroke-width:1.0;"/><path d="M36.4656,786.875 Q36.6219,786.6563 36.8094,786.5469 Q36.9969,786.4375 37.2156,786.4375 Q37.5906,786.4375 37.825,786.7031 Q38.0594,786.9531 38.0594,787.5625 L38.0594,789.0156 Q38.0594,789.625 37.825,789.8906 Q37.5906,790.1563 37.2156,790.1563 Q36.8719,790.1563 36.6688,789.9531 Q36.4656,789.7656 36.3563,789.25 Q36.3094,788.8906 36.1219,788.7031 Q35.7938,788.3281 35.1844,788.1094 Q34.575,787.8906 33.95,787.8906 Q33.1844,787.8906 32.5438,788.2188 Q31.9188,788.5469 31.4188,789.2969 Q30.9344,790.0469 30.9344,791.0781 L30.9344,792.1719 Q30.9344,793.4063 31.825,794.2344 Q32.7156,795.0469 34.3094,795.0469 Q35.2469,795.0469 35.9031,794.7969 Q36.2938,794.6406 36.7156,794.2031 Q36.9813,793.9375 37.1219,793.8594 Q37.2781,793.7813 37.4813,793.7813 Q37.8094,793.7813 38.0594,794.0469 Q38.325,794.2969 38.325,794.6406 Q38.325,794.9844 37.9813,795.3906 Q37.4813,795.9688 36.6844,796.2969 Q35.6063,796.75 34.3094,796.75 Q32.7938,796.75 31.5906,796.125 Q30.6063,795.625 29.9188,794.5625 Q29.2313,793.4844 29.2313,792.2031 L29.2313,791.0469 Q29.2313,789.7188 29.8406,788.5781 Q30.4656,787.4219 31.5594,786.8125 Q32.6531,786.1875 33.8875,786.1875 Q34.6219,786.1875 35.2625,786.3594 Q35.9188,786.5156 36.4656,786.875 Z " fill="#000000"/><text fill="#000000" font-family="sans-serif" font-size="14" lengthAdjust="spacing" textLength="165" x="50.3" y="796.7285">ReprodutorMusicalPadrao</text><line style="stroke:#181818;stroke-width:0.5;" x1="8" x2="229" y1="807" y2="807"/><rect fill="none" height="6" style="stroke:#C82930;stroke-width:1.0;" width="6" x="15" y="818.3047"/><text fill="#000000" font-family="sans-serif" font-size="14" lengthAdjust="spacing" textLength="159" x="27" y="825.5332">listaMusicas: List&lt;String&gt;</text><rect fill="none" height="6" style="stroke:#C82930;stroke-width:1.0;" width="6" x="15" y="835.9141"/><text fill="#000000" font-family="sans-serif" font-size="14" lengthAdjust="spacing" textLength="121" x="27" y="843.1426">musicaAtual: String</text><line style="stroke:#181818;stroke-width:0.5;" x1="8" x2="229" y1="850.2188" y2="850.2188"/><ellipse cx="18" cy="864.5234" fill="#84BE84" rx="3" ry="3" style="stroke:#038048;stroke-width:1.0;"/><text fill="#000000" font-family="sans-serif" font-size="14" lengthAdjust="spacing" textLength="42" x="27" y="868.752">tocar()</text><ellipse cx="18" cy="882.1328" fill="#84BE84" rx="3" ry="3" style="stroke:#038048;stroke-width:1.0;"/><text fill="#000000" font-family="sans-serif" font-size="14" lengthAdjust="spacing" textLength="54" x="27" y="886.3613">pausar()</text><ellipse cx="18" cy="899.7422" fill="#84BE84" rx="3" ry="3" style="stroke:#038048;stroke-width:1.0;"/><text fill="#000000" font-family="sans-serif" font-size="14" lengthAdjust="spacing" textLength="119" x="27" y="903.9707">selecionarMusica()</text><ellipse cx="18" cy="917.3516" fill="#84BE84" rx="3" ry="3" style="stroke:#038048;stroke-width:1.0;"/><text fill="#000000" font-family="sans-serif" font-size="14" lengthAdjust="spacing" textLength="197" x="27" y="921.5801">adicionarMusica(String musica)</text></g><!--class AparelhoTelefonicoPadrao--><g id="elem_AparelhoTelefonicoPadrao"><rect codeLine="30" fill="#F1F1F1" height="118.4375" id="AparelhoTelefonicoPadrao" rx="2.5" ry="2.5" style="stroke:#181818;stroke-width:0.5;" width="201" x="265" y="793"/><ellipse cx="280" cy="809" fill="#ADD1B2" rx="11" ry="11" style="stroke:#181818;stroke-width:1.0;"/><path d="M282.7656,804.875 Q282.9219,804.6563 283.1094,804.5469 Q283.2969,804.4375 283.5156,804.4375 Q283.8906,804.4375 284.125,804.7031 Q284.3594,804.9531 284.3594,805.5625 L284.3594,807.0156 Q284.3594,807.625 284.125,807.8906 Q283.8906,808.1563 283.5156,808.1563 Q283.1719,808.1563 282.9688,807.9531 Q282.7656,807.7656 282.6563,807.25 Q282.6094,806.8906 282.4219,806.7031 Q282.0938,806.3281 281.4844,806.1094 Q280.875,805.8906 280.25,805.8906 Q279.4844,805.8906 278.8438,806.2188 Q278.2188,806.5469 277.7188,807.2969 Q277.2344,808.0469 277.2344,809.0781 L277.2344,810.1719 Q277.2344,811.4063 278.125,812.2344 Q279.0156,813.0469 280.6094,813.0469 Q281.5469,813.0469 282.2031,812.7969 Q282.5938,812.6406 283.0156,812.2031 Q283.2813,811.9375 283.4219,811.8594 Q283.5781,811.7813 283.7813,811.7813 Q284.1094,811.7813 284.3594,812.0469 Q284.625,812.2969 284.625,812.6406 Q284.625,812.9844 284.2813,813.3906 Q283.7813,813.9688 282.9844,814.2969 Q281.9063,814.75 280.6094,814.75 Q279.0938,814.75 277.8906,814.125 Q276.9063,813.625 276.2188,812.5625 Q275.5313,811.4844 275.5313,810.2031 L275.5313,809.0469 Q275.5313,807.7188 276.1406,806.5781 Q276.7656,805.4219 277.8594,804.8125 Q278.9531,804.1875 280.1875,804.1875 Q280.9219,804.1875 281.5625,804.3594 Q282.2188,804.5156 282.7656,804.875 Z " fill="#000000"/><text fill="#000000" font-family="sans-serif" font-size="14" lengthAdjust="spacing" textLength="169" x="294" y="814.7285">AparelhoTelefonicoPadrao</text><line style="stroke:#181818;stroke-width:0.5;" x1="266" x2="465" y1="825" y2="825"/><rect fill="none" height="6" style="stroke:#C82930;stroke-width:1.0;" width="6" x="273" y="836.3047"/><text fill="#000000" font-family="sans-serif" font-size="14" lengthAdjust="spacing" textLength="93" x="285" y="843.5332">numero: String</text><line style="stroke:#181818;stroke-width:0.5;" x1="266" x2="465" y1="850.6094" y2="850.6094"/><ellipse cx="276" cy="864.9141" fill="#84BE84" rx="3" ry="3" style="stroke:#038048;stroke-width:1.0;"/><text fill="#000000" font-family="sans-serif" font-size="14" lengthAdjust="spacing" textLength="37" x="285" y="869.1426">ligar()</text><ellipse cx="276" cy="882.5234" fill="#84BE84" rx="3" ry="3" style="stroke:#038048;stroke-width:1.0;"/><text fill="#000000" font-family="sans-serif" font-size="14" lengthAdjust="spacing" textLength="59" x="285" y="886.752">atender()</text><ellipse cx="276" cy="900.1328" fill="#84BE84" rx="3" ry="3" style="stroke:#038048;stroke-width:1.0;"/><text fill="#000000" font-family="sans-serif" font-size="14" lengthAdjust="spacing" textLength="117" x="285" y="904.3613">iniciarCorreioVoz()</text></g><!--class NavegadorInternetPadrao--><g id="elem_NavegadorInternetPadrao"><rect codeLine="38" fill="#F1F1F1" height="118.4375" id="NavegadorInternetPadrao" rx="2.5" ry="2.5" style="stroke:#181818;stroke-width:0.5;" width="195" x="501" y="793"/><ellipse cx="516" cy="809" fill="#ADD1B2" rx="11" ry="11" style="stroke:#181818;stroke-width:1.0;"/><path d="M518.7656,804.875 Q518.9219,804.6563 519.1094,804.5469 Q519.2969,804.4375 519.5156,804.4375 Q519.8906,804.4375 520.125,804.7031 Q520.3594,804.9531 520.3594,805.5625 L520.3594,807.0156 Q520.3594,807.625 520.125,807.8906 Q519.8906,808.1563 519.5156,808.1563 Q519.1719,808.1563 518.9688,807.9531 Q518.7656,807.7656 518.6563,807.25 Q518.6094,806.8906 518.4219,806.7031 Q518.0938,806.3281 517.4844,806.1094 Q516.875,805.8906 516.25,805.8906 Q515.4844,805.8906 514.8438,806.2188 Q514.2188,806.5469 513.7188,807.2969 Q513.2344,808.0469 513.2344,809.0781 L513.2344,810.1719 Q513.2344,811.4063 514.125,812.2344 Q515.0156,813.0469 516.6094,813.0469 Q517.5469,813.0469 518.2031,812.7969 Q518.5938,812.6406 519.0156,812.2031 Q519.2813,811.9375 519.4219,811.8594 Q519.5781,811.7813 519.7813,811.7813 Q520.1094,811.7813 520.3594,812.0469 Q520.625,812.2969 520.625,812.6406 Q520.625,812.9844 520.2813,813.3906 Q519.7813,813.9688 518.9844,814.2969 Q517.9063,814.75 516.6094,814.75 Q515.0938,814.75 513.8906,814.125 Q512.9063,813.625 512.2188,812.5625 Q511.5313,811.4844 511.5313,810.2031 L511.5313,809.0469 Q511.5313,807.7188 512.1406,806.5781 Q512.7656,805.4219 513.8594,804.8125 Q514.9531,804.1875 516.1875,804.1875 Q516.9219,804.1875 517.5625,804.3594 Q518.2188,804.5156 518.7656,804.875 Z " fill="#000000"/><text fill="#000000" font-family="sans-serif" font-size="14" lengthAdjust="spacing" textLength="163" x="530" y="814.7285">NavegadorInternetPadrao</text><line style="stroke:#181818;stroke-width:0.5;" x1="502" x2="695" y1="825" y2="825"/><rect fill="none" height="6" style="stroke:#C82930;stroke-width:1.0;" width="6" x="509" y="836.3047"/><text fill="#000000" font-family="sans-serif" font-size="14" lengthAdjust="spacing" textLength="136" x="521" y="843.5332">historico: List&lt;String&gt;</text><line style="stroke:#181818;stroke-width:0.5;" x1="502" x2="695" y1="850.6094" y2="850.6094"/><ellipse cx="512" cy="864.9141" fill="#84BE84" rx="3" ry="3" style="stroke:#038048;stroke-width:1.0;"/><text fill="#000000" font-family="sans-serif" font-size="14" lengthAdjust="spacing" textLength="87" x="521" y="869.1426">exibirPagina()</text><ellipse cx="512" cy="882.5234" fill="#84BE84" rx="3" ry="3" style="stroke:#038048;stroke-width:1.0;"/><text fill="#000000" font-family="sans-serif" font-size="14" lengthAdjust="spacing" textLength="125" x="521" y="886.752">adicionarNovaAba()</text><ellipse cx="512" cy="900.1328" fill="#84BE84" rx="3" ry="3" style="stroke:#038048;stroke-width:1.0;"/><text fill="#000000" font-family="sans-serif" font-size="14" lengthAdjust="spacing" textLength="107" x="521" y="904.3613">atualizarPagina()</text></g><!--class IPhone--><g id="elem_IPhone"><rect codeLine="46" fill="#F1F1F1" height="259.3125" id="IPhone" rx="2.5" ry="2.5" style="stroke:#181818;stroke-width:0.5;" width="266" x="232.5" y="276"/><ellipse cx="339.25" cy="292" fill="#ADD1B2" rx="11" ry="11" style="stroke:#181818;stroke-width:1.0;"/><path d="M342.0156,287.875 Q342.1719,287.6563 342.3594,287.5469 Q342.5469,287.4375 342.7656,287.4375 Q343.1406,287.4375 343.375,287.7031 Q343.6094,287.9531 343.6094,288.5625 L343.6094,290.0156 Q343.6094,290.625 343.375,290.8906 Q343.1406,291.1563 342.7656,291.1563 Q342.4219,291.1563 342.2188,290.9531 Q342.0156,290.7656 341.9063,290.25 Q341.8594,289.8906 341.6719,289.7031 Q341.3438,289.3281 340.7344,289.1094 Q340.125,288.8906 339.5,288.8906 Q338.7344,288.8906 338.0938,289.2188 Q337.4688,289.5469 336.9688,290.2969 Q336.4844,291.0469 336.4844,292.0781 L336.4844,293.1719 Q336.4844,294.4063 337.375,295.2344 Q338.2656,296.0469 339.8594,296.0469 Q340.7969,296.0469 341.4531,295.7969 Q341.8438,295.6406 342.2656,295.2031 Q342.5313,294.9375 342.6719,294.8594 Q342.8281,294.7813 343.0313,294.7813 Q343.3594,294.7813 343.6094,295.0469 Q343.875,295.2969 343.875,295.6406 Q343.875,295.9844 343.5313,296.3906 Q343.0313,296.9688 342.2344,297.2969 Q341.1563,297.75 339.8594,297.75 Q338.3438,297.75 337.1406,297.125 Q336.1563,296.625 335.4688,295.5625 Q334.7813,294.4844 334.7813,293.2031 L334.7813,292.0469 Q334.7813,290.7188 335.3906,289.5781 Q336.0156,288.4219 337.1094,287.8125 Q338.2031,287.1875 339.4375,287.1875 Q340.1719,287.1875 340.8125,287.3594 Q341.4688,287.5156 342.0156,287.875 Z " fill="#000000"/><text fill="#000000" font-family="sans-serif" font-size="14" lengthAdjust="spacing" textLength="44" x="359.75" y="297.7285">IPhone</text><line style="stroke:#181818;stroke-width:0.5;" x1="233.5" x2="497.5" y1="308" y2="308"/><rect fill="none" height="6" style="stroke:#C82930;stroke-width:1.0;" width="6" x="240.5" y="319.3047"/><text fill="#000000" font-family="sans-serif" font-size="14" lengthAdjust="spacing" textLength="240" x="252.5" y="326.5332">reprodutor: ReprodutorMusicalPadrao</text><rect fill="none" height="6" style="stroke:#C82930;stroke-width:1.0;" width="6" x="240.5" y="336.9141"/><text fill="#000000" font-family="sans-serif" font-size="14" lengthAdjust="spacing" textLength="228" x="252.5" y="344.1426">telefone: AparelhoTelefonicoPadrao</text><rect fill="none" height="6" style="stroke:#C82930;stroke-width:1.0;" width="6" x="240.5" y="354.5234"/><text fill="#000000" font-family="sans-serif" font-size="14" lengthAdjust="spacing" textLength="239" x="252.5" y="361.752">navegador: NavegadorInternetPadrao</text><line style="stroke:#181818;stroke-width:0.5;" x1="233.5" x2="497.5" y1="368.8281" y2="368.8281"/><ellipse cx="243.5" cy="383.1328" fill="#84BE84" rx="3" ry="3" style="stroke:#038048;stroke-width:1.0;"/><text fill="#000000" font-family="sans-serif" font-size="14" lengthAdjust="spacing" textLength="42" x="252.5" y="387.3613">tocar()</text><ellipse cx="243.5" cy="400.7422" fill="#84BE84" rx="3" ry="3" style="stroke:#038048;stroke-width:1.0;"/><text fill="#000000" font-family="sans-serif" font-size="14" lengthAdjust="spacing" textLength="54" x="252.5" y="404.9707">pausar()</text><ellipse cx="243.5" cy="418.3516" fill="#84BE84" rx="3" ry="3" style="stroke:#038048;stroke-width:1.0;"/><text fill="#000000" font-family="sans-serif" font-size="14" lengthAdjust="spacing" textLength="119" x="252.5" y="422.5801">selecionarMusica()</text><ellipse cx="243.5" cy="435.9609" fill="#84BE84" rx="3" ry="3" style="stroke:#038048;stroke-width:1.0;"/><text fill="#000000" font-family="sans-serif" font-size="14" lengthAdjust="spacing" textLength="37" x="252.5" y="440.1895">ligar()</text><ellipse cx="243.5" cy="453.5703" fill="#84BE84" rx="3" ry="3" style="stroke:#038048;stroke-width:1.0;"/><text fill="#000000" font-family="sans-serif" font-size="14" lengthAdjust="spacing" textLength="59" x="252.5" y="457.7988">atender()</text><ellipse cx="243.5" cy="471.1797" fill="#84BE84" rx="3" ry="3" style="stroke:#038048;stroke-width:1.0;"/><text fill="#000000" font-family="sans-serif" font-size="14" lengthAdjust="spacing" textLength="117" x="252.5" y="475.4082">iniciarCorreioVoz()</text><ellipse cx="243.5" cy="488.7891" fill="#84BE84" rx="3" ry="3" style="stroke:#038048;stroke-width:1.0;"/><text fill="#000000" font-family="sans-serif" font-size="14" lengthAdjust="spacing" textLength="87" x="252.5" y="493.0176">exibirPagina()</text><ellipse cx="243.5" cy="506.3984" fill="#84BE84" rx="3" ry="3" style="stroke:#038048;stroke-width:1.0;"/><text fill="#000000" font-family="sans-serif" font-size="14" lengthAdjust="spacing" textLength="125" x="252.5" y="510.627">adicionarNovaAba()</text><ellipse cx="243.5" cy="524.0078" fill="#84BE84" rx="3" ry="3" style="stroke:#038048;stroke-width:1.0;"/><text fill="#000000" font-family="sans-serif" font-size="14" lengthAdjust="spacing" textLength="107" x="252.5" y="528.2363">atualizarPagina()</text></g><!--class IphoneApp--><g id="elem_IphoneApp"><rect codeLine="62" fill="#F1F1F1" height="100.8281" id="IphoneApp" rx="2.5" ry="2.5" style="stroke:#181818;stroke-width:0.5;" width="143" x="294" y="68.5"/><ellipse cx="328.35" cy="84.5" fill="#ADD1B2" rx="11" ry="11" style="stroke:#181818;stroke-width:1.0;"/><path d="M331.1156,80.375 Q331.2719,80.1563 331.4594,80.0469 Q331.6469,79.9375 331.8656,79.9375 Q332.2406,79.9375 332.475,80.2031 Q332.7094,80.4531 332.7094,81.0625 L332.7094,82.5156 Q332.7094,83.125 332.475,83.3906 Q332.2406,83.6563 331.8656,83.6563 Q331.5219,83.6563 331.3188,83.4531 Q331.1156,83.2656 331.0063,82.75 Q330.9594,82.3906 330.7719,82.2031 Q330.4438,81.8281 329.8344,81.6094 Q329.225,81.3906 328.6,81.3906 Q327.8344,81.3906 327.1938,81.7188 Q326.5688,82.0469 326.0688,82.7969 Q325.5844,83.5469 325.5844,84.5781 L325.5844,85.6719 Q325.5844,86.9063 326.475,87.7344 Q327.3656,88.5469 328.9594,88.5469 Q329.8969,88.5469 330.5531,88.2969 Q330.9438,88.1406 331.3656,87.7031 Q331.6313,87.4375 331.7719,87.3594 Q331.9281,87.2813 332.1313,87.2813 Q332.4594,87.2813 332.7094,87.5469 Q332.975,87.7969 332.975,88.1406 Q332.975,88.4844 332.6313,88.8906 Q332.1313,89.4688 331.3344,89.7969 Q330.2563,90.25 328.9594,90.25 Q327.4438,90.25 326.2406,89.625 Q325.2563,89.125 324.5688,88.0625 Q323.8813,86.9844 323.8813,85.7031 L323.8813,84.5469 Q323.8813,83.2188 324.4906,82.0781 Q325.1156,80.9219 326.2094,80.3125 Q327.3031,79.6875 328.5375,79.6875 Q329.2719,79.6875 329.9125,79.8594 Q330.5688,80.0156 331.1156,80.375 Z " fill="#000000"/><text fill="#000000" font-family="sans-serif" font-size="14" lengthAdjust="spacing" textLength="68" x="346.65" y="90.2285">IphoneApp</text><line style="stroke:#181818;stroke-width:0.5;" x1="295" x2="436" y1="100.5" y2="100.5"/><rect fill="none" height="6" style="stroke:#C82930;stroke-width:1.0;" width="6" x="302" y="111.8047"/><text fill="#000000" font-family="sans-serif" font-size="14" lengthAdjust="spacing" textLength="95" x="314" y="119.0332">iphone: IPhone</text><line style="stroke:#181818;stroke-width:0.5;" x1="295" x2="436" y1="126.1094" y2="126.1094"/><ellipse cx="305" cy="140.4141" fill="#84BE84" rx="3" ry="3" style="stroke:#038048;stroke-width:1.0;"/><text fill="#000000" font-family="sans-serif" font-size="14" lengthAdjust="spacing" textLength="47" x="314" y="144.6426">iniciar()</text><ellipse cx="305" cy="158.0234" fill="#84BE84" rx="3" ry="3" style="stroke:#038048;stroke-width:1.0;"/><text fill="#000000" font-family="sans-serif" font-size="14" lengthAdjust="spacing" textLength="117" x="314" y="162.252">main(String[] args)</text></g><!--reverse link ReprodutorMusical to ReprodutorMusicalPadrao--><g id="link_ReprodutorMusical_ReprodutorMusicalPadrao"><path codeLine="81" d="M136.9606,732.2657 C134.0706,750.8257 133.5,754.53 130.33,774.9 " fill="none" id="ReprodutorMusical-backto-ReprodutorMusicalPadrao" style="stroke:#181818;stroke-width:1.0;stroke-dasharray:7.0,7.0;"/><polygon fill="none" points="139.73,714.48,131.032,731.3425,142.8891,733.1888,139.73,714.48" style="stroke:#181818;stroke-width:1.0;"/></g><!--reverse link AparelhoTelefonico to AparelhoTelefonicoPadrao--><g id="link_AparelhoTelefonico_AparelhoTelefonicoPadrao"><path codeLine="82" d="M365.5,732.48 C365.5,756.65 365.5,767.8 365.5,792.95 " fill="none" id="AparelhoTelefonico-backto-AparelhoTelefonicoPadrao" style="stroke:#181818;stroke-width:1.0;stroke-dasharray:7.0,7.0;"/><polygon fill="none" points="365.5,714.48,359.5,732.48,371.5,732.48,365.5,714.48" style="stroke:#181818;stroke-width:1.0;"/></g><!--reverse link NavegadorInternet to NavegadorInternetPadrao--><g id="link_NavegadorInternet_NavegadorInternetPadrao"><path codeLine="83" d="M584.5079,732.3562 C587.3579,756.5262 588.69,767.8 591.65,792.95 " fill="none" id="NavegadorInternet-backto-NavegadorInternetPadrao" style="stroke:#181818;stroke-width:1.0;stroke-dasharray:7.0,7.0;"/><polygon fill="none" points="582.4,714.48,578.5491,733.0588,590.4666,731.6535,582.4,714.48" style="stroke:#181818;stroke-width:1.0;"/></g><!--link IPhone to ReprodutorMusical--><g id="link_IPhone_ReprodutorMusical"><path codeLine="85" d="M255.86,535.25 C232.32,562.89 220.4878,576.7837 201.4278,599.1737 " fill="none" id="IPhone-to-ReprodutorMusical" style="stroke:#181818;stroke-width:1.0;"/><polygon fill="none" points="189.76,612.88,205.9966,603.063,196.859,595.2844,189.76,612.88" style="stroke:#181818;stroke-width:1.0;"/><text fill="#000000" font-family="sans-serif" font-size="13" lengthAdjust="spacing" textLength="58" x="225.5" y="579.4951">reprodutor</text></g><!--link IPhone to AparelhoTelefonico--><g id="link_IPhone_AparelhoTelefonico"><path codeLine="86" d="M365.5,535.25 C365.5,562.89 365.5,572.49 365.5,594.88 " fill="none" id="IPhone-to-AparelhoTelefonico" style="stroke:#181818;stroke-width:1.0;"/><polygon fill="none" points="365.5,612.88,371.5,594.88,359.5,594.88,365.5,612.88" style="stroke:#181818;stroke-width:1.0;"/><text fill="#000000" font-family="sans-serif" font-size="13" lengthAdjust="spacing" textLength="45" x="366.5" y="579.4951">telefone</text></g><!--link IPhone to NavegadorInternet--><g id="link_IPhone_NavegadorInternet"><path codeLine="87" d="M471.62,535.25 C494.4,562.89 505.6894,576.6017 524.1494,598.9917 " fill="none" id="IPhone-to-NavegadorInternet" style="stroke:#181818;stroke-width:1.0;"/><polygon fill="none" points="535.6,612.88,528.7789,595.1749,519.52,602.8086,535.6,612.88" style="stroke:#181818;stroke-width:1.0;"/><text fill="#000000" font-family="sans-serif" font-size="13" lengthAdjust="spacing" textLength="58" x="508.5" y="579.4951">navegador</text></g><!--link IphoneApp to IPhone--><g id="link_IphoneApp_IPhone"><path codeLine="89" d="M365.5,169.56 C365.5,199.09 365.5,238.06 365.5,275.76 " fill="none" id="IphoneApp-IPhone" style="stroke:#181818;stroke-width:1.0;"/><text fill="#000000" font-family="sans-serif" font-size="13" lengthAdjust="spacing" textLength="38" x="366.5" y="242.4951">iphone</text></g><!--link IphoneApp to View--><g id="link_IphoneApp_View"><path codeLine="90" d="M437.09,119 C462.19,119 485.15,119 513.3,119 " fill="none" id="IphoneApp-to-View" style="stroke:#181818;stroke-width:1.0;stroke-dasharray:7.0,7.0;"/><polygon fill="#181818" points="519.3,119,510.3,115,514.3,119,510.3,123,519.3,119" style="stroke:#181818;stroke-width:1.0;"/><text fill="#000000" font-family="sans-serif" font-size="13" lengthAdjust="spacing" textLength="21" x="467.75" y="112.4951">usa</text></g><!--link View to IphoneApp--><g id="link_View_IphoneApp"><path codeLine="91" d="M519.3,119 C491.15,119 468.19,119 443.09,119 " fill="none" id="View-to-IphoneApp" style="stroke:#181818;stroke-width:1.0;"/><polygon fill="#181818" points="437.09,119,446.09,123,442.09,119,446.09,115,437.09,119" style="stroke:#181818;stroke-width:1.0;"/><text fill="#000000" font-family="sans-serif" font-size="13" lengthAdjust="spacing" textLength="46" x="455.25" y="112.4951">interage</text></g><!--SRC=[hLH1Rjim4Bph5Jos2EG74841eoS3JM8aRIv53sjgBHELIM59fKKI_xsKIDEII1KeMfyaxcXdTsPCgIpI0GIoHsn9LvtLTDSPAQ1XRmLplpVO6qiWx9dTCAi5q8UFQQ65pkGh1XiKKYi8VHtcN1GoycvQ86oE-el37RIIGkU86rddsuD5LM6s95qp2VH94w7Kp_frJdqFBrX3fMdR7ocqEMRy9VUITb1B1Ta1AkdNkzSliDddCRQ3Hhx2jOsRGpHWJ2hx3Yg2YmQbMznOy2N3sMVtTljaIQfw7G2deRRf6JZpfM8eJTsQMPJrnHVYGk7SzmmyeybJusQZg-w4fET3ZPsSsxVecMTC_9eH7fqwcjmWCw52xuoJY_RzqRFjxgWLHbgA5l8bEmFIUgcGBuftaUwoALzQ-jyy_diJ_hU4RI_XfcsZYd8uuK7SOZfAR7a2gK8YltrdGBKPchOWVa2DxEiszFCipn9_XWDFOWGeXKxL9_zGnDhD00uyusNlK7MJumRfeHMWyrZZnZZ5_qnu7oCFA8v0WJ_qEFSxf1VmxVjgjPYepBqvu1UJbTvs0tunNo7bPVc-JeVWezHFa2azZx6V01DUVasz8u_vACiG2HuYCggjrixnLMySPoxuHNXntwol2NFVzGpEX-8t]--></g></svg>